<svg data-v-fde0c5aa="" xmlns="http://www.w3.org/2000/svg" viewBox="0 0 300 300" class="iconLeftSlogan"><!----><defs data-v-fde0c5aa=""><!----></defs><rect data-v-fde0c5aa="" fill="#E0EAEF" x="0" y="0" width="300px" height="300px" class="logo-background-square"></rect><defs data-v-fde0c5aa=""><!----></defs><g data-v-fde0c5aa="" id="f653c1e6-8618-4996-9f7a-2f2fd0ea0ad8" fill="#012F41" transform="matrix(2.7122603723497236,0,0,2.7122603723497236,144.91878951227775,113.2706739787612)"><path d="M6.40 3.01L6.40 3.01L6.40 3.01Q6.62 3.01 6.84 3.09L6.84 3.09L6.84 3.09Q7.06 3.18 7.27 3.32L7.27 3.32L7.27 3.32Q7.49 3.46 7.68 3.63L7.68 3.63L7.68 3.63Q7.88 3.79 8.03 3.96L8.03 3.96L8.03 3.96Q8.19 4.13 8.30 4.28L8.30 4.28L8.30 4.28Q8.42 4.42 8.47 4.51L8.47 4.51L8.47 4.51Q8.52 4.59 8.57 4.68L8.57 4.68L8.57 4.68Q8.63 4.76 8.67 4.90L8.67 4.90L8.67 4.90Q8.72 5.04 8.76 5.28L8.76 5.28L8.76 5.28Q8.79 5.52 8.79 5.92L8.79 5.92L8.79 5.92Q8.79 6.88 8.54 7.82L8.54 7.82L8.54 7.82Q8.29 8.76 7.86 9.63L7.86 9.63L7.86 9.63Q7.44 10.50 6.87 11.28L6.87 11.28L6.87 11.28Q6.31 12.06 5.67 12.69L5.67 12.69L5.67 12.69Q6.11 13.32 6.61 13.89L6.61 13.89L6.61 13.89Q7.11 14.46 7.63 15.05L7.63 15.05L7.63 15.05Q7.23 15.07 6.68 15.10L6.68 15.10L6.68 15.10Q6.13 15.13 5.50 15.13L5.50 15.13L5.50 15.13Q5.22 14.76 4.96 14.41L4.96 14.41L4.96 14.41Q4.70 14.07 4.48 13.73L4.48 13.73L4.48 13.73Q3.77 14.25 3.09 14.55L3.09 14.55L3.09 14.55Q2.41 14.84 1.83 14.84L1.83 14.84L1.83 14.84Q1.64 14.84 1.45 14.75L1.45 14.75L1.45 14.75Q1.25 14.66 1.07 14.52L1.07 14.52L1.07 14.52Q0.88 14.38 0.72 14.21L0.72 14.21L0.72 14.21Q0.55 14.03 0.42 13.87L0.42 13.87L0.42 13.87Q0.29 13.70 0.19 13.56L0.19 13.56L0.19 13.56Q0.10 13.43 0.07 13.36L0.07 13.36L0.07 13.36Q0.03 13.29-0.01 13.20L-0.01 13.20L-0.01 13.20Q-0.06 13.10-0.10 12.96L-0.10 12.96L-0.10 12.96Q-0.14 12.81-0.17 12.60L-0.17 12.60L-0.17 12.60Q-0.20 12.38-0.20 12.07L-0.20 12.07L-0.20 12.07Q-0.20 11.59-0.11 11.04L-0.11 11.04L-0.11 11.04Q-0.01 10.48 0.23 9.84L0.23 9.84L0.23 9.84Q0.46 9.19 0.88 8.47L0.88 8.47L0.88 8.47Q1.29 7.74 1.93 6.93L1.93 6.93L1.93 6.93Q1.98 6.99 2.06 7.08L2.06 7.08L2.06 7.08Q2.15 7.16 2.25 7.28L2.25 7.28L2.25 7.28Q2.34 7.40 2.46 7.53L2.46 7.53L2.46 7.53Q2.57 7.66 2.68 7.79L2.68 7.79L2.68 7.79Q2.72 7.16 2.91 6.57L2.91 6.57L2.91 6.57Q3.10 5.97 3.39 5.44L3.39 5.44L3.39 5.44Q3.68 4.91 4.06 4.46L4.06 4.46L4.06 4.46Q4.43 4.01 4.83 3.69L4.83 3.69L4.83 3.69Q5.23 3.37 5.63 3.19L5.63 3.19L5.63 3.19Q6.04 3.01 6.40 3.01ZM4.12 7.79L4.12 7.79L4.12 7.79Q4.12 8.80 4.30 9.64L4.30 9.64L4.30 9.64Q4.48 10.48 4.81 11.20L4.81 11.20L4.81 11.20Q5.37 10.56 5.87 9.80L5.87 9.80L5.87 9.80Q6.36 9.03 6.74 8.19L6.74 8.19L6.74 8.19Q7.12 7.35 7.34 6.45L7.34 6.45L7.34 6.45Q7.56 5.55 7.56 4.65L7.56 4.65L7.56 4.65Q7.56 4.40 7.51 4.23L7.51 4.23L7.51 4.23Q7.45 4.07 7.36 3.96L7.36 3.96L7.36 3.96Q7.27 3.86 7.16 3.81L7.16 3.81L7.16 3.81Q7.05 3.77 6.93 3.77L6.93 3.77L6.93 3.77Q6.51 3.77 6.15 3.94L6.15 3.94L6.15 3.94Q5.78 4.12 5.46 4.41L5.46 4.41L5.46 4.41Q5.15 4.71 4.90 5.11L4.90 5.11L4.90 5.11Q4.65 5.50 4.47 5.95L4.47 5.95L4.47 5.95Q4.30 6.39 4.21 6.87L4.21 6.87L4.21 6.87Q4.12 7.34 4.12 7.79ZM3.66 12.37L3.66 12.37L3.66 12.37Q3.25 11.56 3.01 10.74L3.01 10.74L3.01 10.74Q2.78 9.91 2.71 8.96L2.71 8.96L2.71 8.96Q2.44 9.34 2.21 9.74L2.21 9.74L2.21 9.74Q1.98 10.14 1.78 10.54L1.78 10.54L1.78 10.54Q1.59 10.94 1.43 11.32L1.43 11.32L1.43 11.32Q1.28 11.70 1.17 12.03L1.17 12.03L1.17 12.03Q1.07 12.35 1.01 12.60L1.01 12.60L1.01 12.60Q0.95 12.85 0.95 13.00L0.95 13.00L0.95 13.00Q0.95 13.10 0.99 13.20L0.99 13.20L0.99 13.20Q1.03 13.30 1.09 13.38L1.09 13.38L1.09 13.38Q1.16 13.45 1.22 13.50L1.22 13.50L1.22 13.50Q1.29 13.54 1.35 13.54L1.35 13.54L1.35 13.54Q1.81 13.54 2.41 13.23L2.41 13.23L2.41 13.23Q3.01 12.92 3.66 12.37ZM15.32 8.76L14.08 7.57L14.08 7.57Q14.29 7.44 14.52 7.24L14.52 7.24L14.52 7.24Q14.75 7.04 14.97 6.78L14.97 6.78L14.97 6.78Q15.20 6.53 15.42 6.23L15.42 6.23L15.42 6.23Q15.63 5.93 15.79 5.63L15.79 5.63L15.79 5.63Q15.95 5.33 16.04 5.02L16.04 5.02L16.04 5.02Q16.14 4.72 16.14 4.44L16.14 4.44L16.14 4.44Q16.14 4.22 16.11 4.09L16.11 4.09L16.11 4.09Q16.07 3.96 16.01 3.89L16.01 3.89L16.01 3.89Q15.96 3.82 15.88 3.79L15.88 3.79L15.88 3.79Q15.80 3.77 15.72 3.77L15.72 3.77L15.72 3.77Q15.39 3.77 14.98 4.04L14.98 4.04L14.98 4.04Q14.56 4.32 14.10 4.80L14.10 4.80L14.10 4.80Q13.64 5.27 13.16 5.91L13.16 5.91L13.16 5.91Q12.67 6.54 12.22 7.27L12.22 7.27L12.22 7.27Q11.77 8.00 11.37 8.77L11.37 8.77L11.37 8.77Q10.97 9.54 10.67 10.29L10.67 10.29L10.67 10.29Q10.38 11.05 10.20 11.73L10.20 11.73L10.20 11.73Q10.03 12.42 10.03 12.97L10.03 12.97L10.03 12.97Q10.03 13.17 10.06 13.31L10.06 13.31L10.06 13.31Q10.09 13.44 10.15 13.52L10.15 13.52L10.15 13.52Q10.21 13.60 10.29 13.62L10.29 13.62L10.29 13.62Q10.38 13.65 10.50 13.65L10.50 13.65L10.50 13.65Q10.70 13.65 10.97 13.48L10.97 13.48L10.97 13.48Q11.24 13.32 11.54 13.05L11.54 13.05L11.54 13.05Q11.85 12.78 12.16 12.46L12.16 12.46L12.16 12.46Q12.47 12.13 12.74 11.81L12.74 11.81L12.74 11.81Q13.02 11.49 13.23 11.22L13.23 11.22L13.23 11.22Q13.45 10.95 13.57 10.79L13.57 10.79L13.57 10.79Q13.57 10.80 13.74 10.94L13.74 10.94L13.74 10.94Q13.90 11.07 14.13 11.27L14.13 11.27L14.13 11.27Q14.36 11.46 14.58 11.65L14.58 11.65L14.58 11.65Q14.81 11.85 14.92 11.97L14.92 11.97L14.92 11.97Q14.76 12.15 14.51 12.44L14.51 12.44L14.51 12.44Q14.25 12.73 13.94 13.05L13.94 13.05L13.94 13.05Q13.62 13.36 13.25 13.69L13.25 13.69L13.25 13.69Q12.89 14.01 12.51 14.26L12.51 14.26L12.51 14.26Q12.13 14.52 11.74 14.68L11.74 14.68L11.74 14.68Q11.35 14.84 10.98 14.84L10.98 14.84L10.98 14.84Q10.71 14.84 10.41 14.68L10.41 14.68L10.41 14.68Q10.11 14.52 9.82 14.26L9.82 14.26L9.82 14.26Q9.52 14.01 9.27 13.70L9.27 13.70L9.27 13.70Q9.02 13.38 8.85 13.08L8.85 13.08L8.85 13.08Q8.64 12.69 8.61 12.37L8.61 12.37L8.61 12.37Q8.57 12.05 8.57 11.86L8.57 11.86L8.57 11.86Q8.57 11.33 8.72 10.67L8.72 10.67L8.72 10.67Q8.87 10.01 9.15 9.29L9.15 9.29L9.15 9.29Q9.43 8.57 9.83 7.82L9.83 7.82L9.83 7.82Q10.23 7.08 10.71 6.38L10.71 6.38L10.71 6.38Q11.19 5.68 11.75 5.07L11.75 5.07L11.75 5.07Q12.32 4.45 12.94 3.99L12.94 3.99L12.94 3.99Q13.56 3.53 14.22 3.27L14.22 3.27L14.22 3.27Q14.88 3.01 15.55 3.01L15.55 3.01L15.55 3.01Q15.74 3.01 15.96 3.11L15.96 3.11L15.96 3.11Q16.17 3.21 16.37 3.37L16.37 3.37L16.37 3.37Q16.58 3.53 16.77 3.74L16.77 3.74L16.77 3.74Q16.96 3.95 17.10 4.17L17.10 4.17L17.10 4.17Q17.25 4.40 17.33 4.62L17.33 4.62L17.33 4.62Q17.42 4.84 17.42 5.02L17.42 5.02L17.42 5.02Q17.42 5.43 17.25 5.93L17.25 5.93L17.25 5.93Q17.09 6.43 16.81 6.93L16.81 6.93L16.81 6.93Q16.53 7.43 16.14 7.91L16.14 7.91L16.14 7.91Q15.76 8.39 15.32 8.76L15.32 8.76ZM26.78 5.00L26.78 5.00L26.78 5.00Q26.45 4.98 26.11 4.96L26.11 4.96L26.11 4.96Q25.76 4.94 25.38 4.92L25.38 4.92L25.38 4.92Q24.99 4.90 24.52 4.89L24.52 4.89L24.52 4.89Q24.05 4.87 23.46 4.87L23.46 4.87L23.46 4.87Q22.71 4.87 22.00 4.91L22.00 4.91L22.00 4.91Q21.30 4.95 20.61 5.05L20.61 5.05L20.61 5.05Q19.92 5.15 19.23 5.34L19.23 5.34L19.23 5.34Q18.54 5.52 17.81 5.82L17.81 5.82L17.81 5.82Q18.11 6.64 18.29 7.43L18.29 7.43L18.29 7.43Q18.46 8.22 18.56 8.93L18.56 8.93L18.56 8.93Q18.66 9.64 18.70 10.26L18.70 10.26L18.70 10.26Q18.73 10.88 18.73 11.38L18.73 11.38L18.73 11.38Q18.73 11.85 18.71 12.21L18.71 12.21L18.71 12.21Q18.69 12.57 18.66 12.81L18.66 12.81L18.66 12.81Q18.63 13.10 18.59 13.30L18.59 13.30L18.59 13.30Q18.92 12.52 19.23 11.65L19.23 11.65L19.23 11.65Q19.54 10.78 19.82 9.92L19.82 9.92L19.82 9.92Q20.10 9.06 20.34 8.26L20.34 8.26L20.34 8.26Q20.58 7.46 20.76 6.83L20.76 6.83L20.76 6.83Q20.95 6.19 21.06 5.77L21.06 5.77L21.06 5.77Q21.18 5.34 21.21 5.22L21.21 5.22L21.21 5.22Q21.36 5.35 21.58 5.54L21.58 5.54L21.58 5.54Q21.79 5.73 22.01 5.93L22.01 5.93L22.01 5.93Q22.23 6.14 22.42 6.33L22.42 6.33L22.42 6.33Q22.61 6.51 22.71 6.64L22.71 6.64L22.71 6.64Q22.54 7.27 22.26 8.04L22.26 8.04L22.26 8.04Q21.98 8.80 21.64 9.62L21.64 9.62L21.64 9.62Q21.30 10.43 20.93 11.25L20.93 11.25L20.93 11.25Q20.56 12.07 20.21 12.80L20.21 12.80L20.21 12.80Q19.87 13.53 19.57 14.13L19.57 14.13L19.57 14.13Q19.27 14.73 19.08 15.12L19.08 15.12L19.08 15.12Q18.98 15.02 18.83 14.84L18.83 14.84L18.83 14.84Q18.68 14.66 18.52 14.48L18.52 14.48L18.52 14.48Q18.36 14.30 18.23 14.14L18.23 14.14L18.23 14.14Q18.09 13.99 18.03 13.92L18.03 13.92L18.03 13.92Q18.05 13.84 18.08 13.63L18.08 13.63L18.08 13.63Q18.12 13.43 18.16 13.13L18.16 13.13L18.16 13.13Q18.20 12.82 18.22 12.42L18.22 12.42L18.22 12.42Q18.25 12.02 18.25 11.53L18.25 11.53L18.25 11.53Q18.25 10.96 18.20 10.32L18.20 10.32L18.20 10.32Q18.16 9.67 18.02 8.98L18.02 8.98L18.02 8.98Q17.88 8.28 17.62 7.54L17.62 7.54L17.62 7.54Q17.36 6.80 16.94 6.05L16.94 6.05L16.94 6.05Q16.93 6.05 16.93 6.04L16.93 6.04L16.93 6.04Q16.93 6.04 16.93 6.01L16.93 6.01L16.93 6.01Q16.93 5.94 16.97 5.82L16.97 5.82L16.97 5.82Q17.02 5.70 17.10 5.56L17.10 5.56L17.10 5.56Q17.18 5.42 17.27 5.28L17.27 5.28L17.27 5.28Q17.36 5.14 17.45 5.04L17.45 5.04L17.45 5.04Q17.48 5.00 17.77 4.84L17.77 4.84L17.77 4.84Q18.07 4.69 18.58 4.48L18.58 4.48L18.58 4.48Q19.10 4.27 19.81 4.03L19.81 4.03L19.81 4.03Q20.53 3.79 21.40 3.59L21.40 3.59L21.40 3.59Q22.26 3.38 23.27 3.25L23.27 3.25L23.27 3.25Q24.27 3.12 25.35 3.12L25.35 3.12L25.35 3.12Q25.40 3.18 25.51 3.31L25.51 3.31L25.51 3.31Q25.61 3.43 25.75 3.60L25.75 3.60L25.75 3.60Q25.89 3.77 26.04 3.96L26.04 3.96L26.04 3.96Q26.20 4.16 26.34 4.34L26.34 4.34L26.34 4.34Q26.48 4.53 26.60 4.70L26.60 4.70L26.60 4.70Q26.71 4.87 26.78 5.00ZM28.90 4.30L28.90 4.30L28.90 4.30Q28.59 5.11 28.28 5.86L28.28 5.86L28.28 5.86Q27.98 6.61 27.68 7.32L27.68 7.32L27.68 7.32Q27.38 8.03 27.08 8.72L27.08 8.72L27.08 8.72Q26.78 9.40 26.48 10.06L26.48 10.06L26.48 10.06Q26.99 9.99 27.52 9.91L27.52 9.91L27.52 9.91Q28.05 9.82 28.50 9.75L28.50 9.75L28.50 9.75Q28.96 9.69 29.29 9.64L29.29 9.64L29.29 9.64Q29.61 9.59 29.72 9.57L29.72 9.57L29.72 9.57Q30.30 8.18 30.83 6.74L30.83 6.74L30.83 6.74Q31.37 5.31 31.90 3.82L31.90 3.82L31.90 3.82Q32.10 4.02 32.33 4.25L32.33 4.25L32.33 4.25Q32.57 4.48 32.78 4.70L32.78 4.70L32.78 4.70Q32.99 4.91 33.15 5.07L33.15 5.07L33.15 5.07Q33.30 5.23 33.36 5.29L33.36 5.29L33.36 5.29Q32.88 6.31 32.42 7.28L32.42 7.28L32.42 7.28Q31.96 8.25 31.51 9.18L31.51 9.18L31.51 9.18Q32.12 9.03 32.48 8.90L32.48 8.90L32.48 8.90Q32.85 8.78 33.03 8.71L33.03 8.71L33.03 8.71Q33.22 8.63 33.27 8.62L33.27 8.62L33.27 8.62Q33.32 8.61 33.30 8.67L33.30 8.67L33.30 8.67Q33.28 8.72 33.22 8.86L33.22 8.86L33.22 8.86Q33.15 9.00 33.05 9.18L33.05 9.18L33.05 9.18Q32.95 9.36 32.83 9.55L32.83 9.55L32.83 9.55Q32.70 9.75 32.58 9.91L32.58 9.91L32.58 9.91Q32.46 10.08 32.35 10.19L32.35 10.19L32.35 10.19Q32.25 10.29 32.17 10.30L32.17 10.30L32.17 10.30Q32.03 10.33 31.83 10.36L31.83 10.36L31.83 10.36Q31.67 10.38 31.43 10.42L31.43 10.42L31.43 10.42Q31.19 10.46 30.87 10.51L30.87 10.51L30.87 10.51Q30.16 11.96 29.53 13.14L29.53 13.14L29.53 13.14Q28.91 14.31 28.40 15.12L28.40 15.12L28.40 15.12Q28.15 14.92 27.92 14.71L27.92 14.71L27.92 14.71Q27.70 14.51 27.48 14.44L27.48 14.44L27.48 14.44Q27.35 13.63 27.00 12.68L27.00 12.68L27.00 12.68Q26.64 11.74 26.13 10.80L26.13 10.80L26.13 10.80Q25.64 11.83 25.14 12.83L25.14 12.83L25.14 12.83Q24.63 13.84 24.06 14.91L24.06 14.91L24.06 14.91Q23.77 14.67 23.50 14.49L23.50 14.49L23.50 14.49Q23.23 14.31 23.04 14.17L23.04 14.17L23.04 14.17Q23.34 13.58 23.70 12.81L23.70 12.81L23.70 12.81Q24.06 12.05 24.44 11.16L24.44 11.16L24.44 11.16Q24.81 10.27 25.20 9.27L25.20 9.27L25.20 9.27Q25.59 8.28 25.98 7.22L25.98 7.22L25.98 7.22Q26.36 6.16 26.72 5.06L26.72 5.06L26.72 5.06Q27.08 3.96 27.40 2.87L27.40 2.87L27.40 2.87Q27.60 3.06 27.81 3.25L27.81 3.25L27.81 3.25Q28.01 3.44 28.22 3.62L28.22 3.62L28.22 3.62Q28.42 3.80 28.59 3.98L28.59 3.98L28.59 3.98Q28.77 4.15 28.90 4.30ZM28.05 13.32L28.05 13.32L28.05 13.32Q28.66 12.05 29.23 10.73L29.23 10.73L29.23 10.73Q28.23 10.86 26.90 11.00L26.90 11.00L26.90 11.00Q27.08 11.29 27.25 11.60L27.25 11.60L27.25 11.60Q27.42 11.92 27.57 12.22L27.57 12.22L27.57 12.22Q27.71 12.53 27.83 12.81L27.83 12.81L27.83 12.81Q27.95 13.10 28.05 13.32ZM40.78 10.01L40.78 10.01L40.78 10.01Q40.74 10.06 40.60 10.36L40.60 10.36L40.60 10.36Q40.46 10.67 40.25 11.16L40.25 11.16L40.25 11.16Q40.05 11.64 39.82 12.28L39.82 12.28L39.82 12.28Q39.59 12.91 39.36 13.62L39.36 13.62L39.36 13.62Q39.14 14.33 38.94 15.07L38.94 15.07L38.94 15.07Q38.75 15.82 38.64 16.52L38.64 16.52L38.64 16.52Q38.45 16.58 38.22 16.63L38.22 16.63L38.22 16.63Q37.98 16.69 37.75 16.73L37.75 16.73L37.75 16.73Q37.52 16.78 37.32 16.81L37.32 16.81L37.32 16.81Q37.13 16.84 37.04 16.84L37.04 16.84L37.04 16.84Q37.17 16.32 37.29 15.84L37.29 15.84L37.29 15.84Q37.41 15.36 37.55 14.91L37.55 14.91L37.55 14.91Q37.69 14.45 37.87 14.01L37.87 14.01L37.87 14.01Q38.04 13.56 38.27 13.09L38.27 13.09L38.27 13.09Q38.01 13.43 37.72 13.74L37.72 13.74L37.72 13.74Q37.43 14.05 37.13 14.30L37.13 14.30L37.13 14.30Q36.83 14.55 36.51 14.69L36.51 14.69L36.51 14.69Q36.20 14.84 35.90 14.84L35.90 14.84L35.90 14.84Q35.68 14.84 35.42 14.72L35.42 14.72L35.42 14.72Q35.16 14.61 34.89 14.41L34.89 14.41L34.89 14.41Q34.62 14.21 34.37 13.93L34.37 13.93L34.37 13.93Q34.12 13.65 33.92 13.33L33.92 13.33L33.92 13.33Q33.73 13.01 33.61 12.65L33.61 12.65L33.61 12.65Q33.49 12.30 33.49 11.94L33.49 11.94L33.49 11.94Q33.49 11.35 33.65 10.66L33.65 10.66L33.65 10.66Q33.82 9.96 34.11 9.22L34.11 9.22L34.11 9.22Q34.41 8.48 34.82 7.73L34.82 7.73L34.82 7.73Q35.24 6.99 35.74 6.30L35.74 6.30L35.74 6.30Q36.24 5.61 36.81 5.01L36.81 5.01L36.81 5.01Q37.38 4.41 37.99 3.96L37.99 3.96L37.99 3.96Q38.61 3.52 39.25 3.26L39.25 3.26L39.25 3.26Q39.88 3.01 40.52 3.01L40.52 3.01L40.52 3.01Q40.76 3.01 40.98 3.11L40.98 3.11L40.98 3.11Q41.21 3.22 41.42 3.38L41.42 3.38L41.42 3.38Q41.62 3.54 41.78 3.73L41.78 3.73L41.78 3.73Q41.95 3.92 42.07 4.09L42.07 4.09L42.07 4.09Q42.21 4.29 42.32 4.55L42.32 4.55L42.32 4.55Q42.43 4.81 42.43 5.07L42.43 5.07L42.43 5.07Q42.43 5.50 42.30 5.99L42.30 5.99L42.30 5.99Q42.16 6.47 41.93 6.95L41.93 6.95L41.93 6.95Q41.70 7.43 41.38 7.88L41.38 7.88L41.38 7.88Q41.07 8.33 40.71 8.68L40.71 8.68L39.50 7.56L39.50 7.56Q39.71 7.35 40.00 7.01L40.00 7.01L40.00 7.01Q40.28 6.68 40.54 6.26L40.54 6.26L40.54 6.26Q40.80 5.84 40.99 5.36L40.99 5.36L40.99 5.36Q41.17 4.89 41.17 4.40L41.17 4.40L41.17 4.40Q41.17 4.31 41.17 4.21L41.17 4.21L41.17 4.21Q41.16 4.11 41.12 4.02L41.12 4.02L41.12 4.02Q41.08 3.93 41.01 3.87L41.01 3.87L41.01 3.87Q40.93 3.81 40.78 3.81L40.78 3.81L40.78 3.81Q40.40 3.81 39.95 4.09L39.95 4.09L39.95 4.09Q39.49 4.38 39.01 4.87L39.01 4.87L39.01 4.87Q38.53 5.36 38.04 6.01L38.04 6.01L38.04 6.01Q37.55 6.67 37.10 7.40L37.10 7.40L37.10 7.40Q36.65 8.13 36.25 8.90L36.25 8.90L36.25 8.90Q35.86 9.67 35.57 10.39L35.57 10.39L35.57 10.39Q35.28 11.12 35.11 11.75L35.11 11.75L35.11 11.75Q34.95 12.39 34.95 12.85L34.95 12.85L34.95 12.85Q34.95 13.28 35.05 13.47L35.05 13.47L35.05 13.47Q35.16 13.65 35.35 13.65L35.35 13.65L35.35 13.65Q35.58 13.65 35.88 13.50L35.88 13.50L35.88 13.50Q36.17 13.34 36.49 13.09L36.49 13.09L36.49 13.09Q36.80 12.84 37.12 12.53L37.12 12.53L37.12 12.53Q37.44 12.22 37.72 11.90L37.72 11.90L37.72 11.90Q37.99 11.59 38.22 11.29L38.22 11.29L38.22 11.29Q38.44 11.00 38.57 10.79L38.57 10.79L38.57 10.79Q38.69 10.60 38.78 10.38L38.78 10.38L38.78 10.38Q38.87 10.17 38.99 9.95L38.99 9.95L38.99 9.95Q39.25 9.95 39.47 9.96L39.47 9.96L39.47 9.96Q39.69 9.97 39.90 9.98L39.90 9.98L39.90 9.98Q40.12 9.99 40.33 9.99L40.33 9.99L40.33 9.99Q40.54 10.00 40.78 10.01Z"></path></g><defs data-v-fde0c5aa=""><linearGradient data-v-fde0c5aa="" gradientTransform="rotate(25)" id="e05ce7dd-508d-4738-8c93-6b21a215c84e" x1="0%" y1="0%" x2="100%" y2="0%"><stop data-v-fde0c5aa="" offset="0%" stop-color="#08C7D6" stop-opacity="1"></stop><stop data-v-fde0c5aa="" offset="100%" stop-color="#02023E" stop-opacity="1"></stop></linearGradient></defs><g data-v-fde0c5aa="" id="ec702437-ede2-49d8-ab93-5951dca1699d" stroke="none" fill="url(#e05ce7dd-508d-4738-8c93-6b21a215c84e)" transform="matrix(0.29861825146590126,0,0,0.29861825146590126,39.99990838836787,114.57147972960956)"><path d="M29.202 130.613c-3.148 6.867-6.135 17.807-7.086 35.104-.007.131-.027.259-.04.388a55.605 55.605 0 0 0 7.126 2.882v-38.374zM26.141 107.002c-8.619 2.528-22.14 9.209-25.679 26.567-1.56 7.648.963 14.558 5.613 20.305 2.016-17.316 6.435-30.686 13.195-39.804 2.245-3.046 4.624-5.353 6.871-7.068zM282.333 168.771c.276 2.839.502 5.617.666 8.289a50.295 50.295 0 0 0 4.504-3.669 8.497 8.497 0 0 1-5.17-4.62zM281.77 118.24c8.285 9.549 13.771 23.862 16.326 42.569 7.19-11.154 10.931-24.666 4.86-35.271-9.426-16.468-25.892-17.717-34.534-17.088.926.338 1.688.687 2.302 1.021 2.749 1.337 6.876 3.941 11.046 8.769z"></path><circle cx="253.128" cy="84.675" r="19.379"></circle><path d="M235.71 111.742a74.026 74.026 0 0 0 1.685 4.319c1.56 3.671 4.034 8.778 7.661 14.446 6.874 10.744 17.87 23.464 34.638 32.423-1.056-9.061-2.495-18.429-3.887-26.608 3.209 6.432 6.246 15.876 7.827 29.712a6.503 6.503 0 0 0 7.196 5.722 6.502 6.502 0 0 0 5.723-7.195c-2.672-23.473-9.471-37.146-16.297-45.013-3.866-4.478-7.681-6.958-10.455-8.303-2.127-1.166-6.905-2.872-16.673-2.872-7.915 0-12.554 1.12-15.16 2.165-.657.174-1.3.45-1.9.844v-.002l-.083.054a9.614 9.614 0 0 1-.313.199c.015.039.023.067.038.109z"></path><circle cx="52.398" cy="77.805" r="21.195"></circle><path d="M34.861 105.761c-.379-.332-.665-.574-.884-.76-2.604.818-8.006 3.346-13.1 10.262-6.382 8.604-12.293 23.461-13.737 49.629a6.502 6.502 0 0 0 6.499 6.858 6.497 6.497 0 0 0 6.481-6.143c1.337-24.348 6.762-36.576 11.082-42.443v103.615c0 5.351 4.34 9.689 9.69 9.689 5.352 0 9.689-4.339 9.689-9.689v-49.658h3.634v49.658c0 5.351 4.339 9.689 9.689 9.689 5.351 0 9.689-4.339 9.689-9.689v-63.811c-9.615-30.247-32.879-52.128-38.732-57.207zM73.834 109.074a12.723 12.723 0 0 1-.282-.59h-.002a6.465 6.465 0 0 0-2.557-2.946 6.022 6.022 0 0 0-3.455-1.086h-26.68c7.353 6.854 22.739 22.807 32.735 44.705v-19.63a42.062 42.062 0 0 0 2.001 1.619c5.32 4.054 12.404 7.412 21.193 7.82a7.989 7.989 0 0 0 6.504 3.352l.152-.001a8.006 8.006 0 0 0 7.283-5.034l.168-.045a6.5 6.5 0 0 0 4.486-8.021 6.485 6.485 0 0 0-4.079-4.351c.614-30.701 7.3-45.299 12.625-51.8.365-.447.723-.858 1.075-1.24V224.82c0 6.83 5.537 12.363 12.363 12.363 6.828 0 12.365-5.533 12.365-12.363v-90.271h4.635v90.271c0 6.83 5.537 12.363 12.363 12.363 6.828 0 12.365-5.533 12.365-12.363V71.823c1.967 2.134 4.13 5.255 6.225 9.925 3.353 7.533 6.333 19.164 7.238 36.576.036.678.07 1.358.099 2.055a6.493 6.493 0 0 0-4.44 5.126 6.5 6.5 0 0 0 4.605 7.305c-.006.455-.01.907-.018 1.369-.004.231.007.46.023.688a7.996 7.996 0 0 0 7.835 7.451l.145.001c3.974.001 7.283-2.912 7.889-6.744.058-.365.1-.734.106-1.114.005-.305.004-.592.008-.893 9.169-.739 17.157-3.189 23.12-5.626-2.941 16.122-6.959 41.17-6.959 57.664 0 2.35 4.225 4.431 9.689 5.965v37.84a7.872 7.872 0 1 0 15.744 0V194.18c.963.056 1.879.086 2.726.086s1.763-.03 2.726-.086v35.229a7.872 7.872 0 1 0 15.744 0v-37.84c5.465-1.534 9.69-3.615 9.69-5.965 0-4.957-.367-10.692-.955-16.721-33.162-16.283-45.994-46.247-49.112-54.862-4.938 2.385-13.18 5.64-22.547 6.535-.025-.673-.055-1.337-.086-1.997-1.361-29.081-8.076-45.75-15.994-55.573-4.415-5.46-9.188-8.583-13.018-10.204-2.39-1.02-4.391-1.474-5.754-1.678a7.707 7.707 0 0 0-2.456-.405H132.73c-.859 0-1.682.146-2.454.404-1.363.203-3.367.659-5.759 1.679-5.776 2.408-13.53 8.299-19.296 20.182-5.536 11.321-9.552 27.917-9.933 52.83-6.902-.909-11.889-4.517-15.629-8.447a36.949 36.949 0 0 1-4.066-5.223c-.236-.366-.458-.72-.652-1.045a30.141 30.141 0 0 1-1.107-2.005z"></path><circle cx="152.049" cy="22.5" r="22.5"></circle></g><defs data-v-fde0c5aa=""><!----></defs><g data-v-fde0c5aa="" id="47e5fcbb-ccb6-472c-a7ab-38834e4a9d81" fill="#012F41" transform="matrix(0.5038068085850778,0,0,0.5038068085850778,143.37376187583567,166.53190446908485)"><path d="M1.99 12.43L1.99 12.43L1.99 12.43Q1.99 11.45 2.22 10.51L2.22 10.51L2.22 10.51Q2.45 9.56 2.87 8.71L2.87 8.71L2.87 8.71Q3.29 7.87 3.87 7.16L3.87 7.16L3.87 7.16Q4.45 6.45 5.15 5.94L5.15 5.94L5.15 5.94Q5.84 5.42 6.62 5.13L6.62 5.13L6.62 5.13Q7.41 4.84 8.23 4.84L8.23 4.84L8.23 4.84Q9.20 4.84 9.74 5.25L9.74 5.25L9.74 5.25Q10.28 5.66 10.28 6.38L10.28 6.38L10.28 6.38Q10.28 6.66 10.20 6.96L10.20 6.96L10.20 6.96Q10.12 7.25 9.97 7.54L9.97 7.54L9.97 7.54Q9.83 7.83 9.63 8.09L9.63 8.09L9.63 8.09Q9.44 8.36 9.20 8.55L9.20 8.55L9.20 8.55Q8.83 8.50 8.57 8.22L8.57 8.22L8.57 8.22Q8.30 7.95 8.23 7.59L8.23 7.59L8.23 7.59Q8.72 7.18 9.01 6.74L9.01 6.74L9.01 6.74Q9.30 6.30 9.30 5.94L9.30 5.94L9.30 5.94Q9.30 5.32 8.53 5.32L8.53 5.32L8.53 5.32Q8.20 5.32 7.86 5.45L7.86 5.45L7.86 5.45Q7.52 5.59 7.17 5.82L7.17 5.82L7.17 5.82Q6.82 6.06 6.49 6.40L6.49 6.40L6.49 6.40Q6.16 6.73 5.88 7.14L5.88 7.14L5.88 7.14Q3.93 9.94 3.93 12.87L3.93 12.87L3.93 12.87Q3.93 13.90 4.26 14.53L4.26 14.53L4.26 14.53Q4.58 15.16 5.11 15.27L5.11 15.27L5.11 15.27Q5.71 15.13 6.64 14.50L6.64 14.50L6.64 14.50Q7.56 13.87 8.65 12.87L8.65 12.87L8.65 12.87Q8.79 13.01 8.82 13.16L8.82 13.16L8.82 13.16Q8.41 13.69 7.98 14.18L7.98 14.18L7.98 14.18Q7.55 14.67 7.12 15.08L7.12 15.08L7.12 15.08Q6.69 15.48 6.28 15.79L6.28 15.79L6.28 15.79Q5.87 16.10 5.52 16.27L5.52 16.27L5.52 16.27Q3.78 16.24 2.88 15.27L2.88 15.27L2.88 15.27Q1.99 14.31 1.99 12.43ZM22.33 14.36L22.33 14.36L22.33 14.36Q22.33 13.78 22.53 12.85L22.53 12.85L22.53 12.85Q22.72 11.93 23.04 10.88L23.04 10.88L23.04 10.88Q22.12 10.95 21.19 11.06L21.19 11.06L21.19 11.06Q20.26 11.17 19.57 11.19L19.57 11.19L19.57 11.19Q18.94 12.66 18.57 13.89L18.57 13.89L18.57 13.89Q18.20 15.13 17.99 16.31L17.99 16.31L17.99 16.31Q17.46 16.18 17.11 15.87L17.11 15.87L17.11 15.87Q16.76 15.55 16.46 15.08L16.46 15.08L16.46 15.08Q16.58 14.85 16.72 14.50L16.72 14.50L16.72 14.50Q16.87 14.15 17.07 13.66L17.07 13.66L17.07 13.66Q17.28 13.16 17.54 12.50L17.54 12.50L17.54 12.50Q17.79 11.83 18.13 10.95L18.13 10.95L18.13 10.95Q17.67 10.75 17.51 10.40L17.51 10.40L17.51 10.40Q17.58 10.35 17.83 10.28L17.83 10.28L17.83 10.28Q18.07 10.22 18.44 10.15L18.44 10.15L18.62 9.70L18.62 9.70Q18.91 8.95 19.10 8.43L19.10 8.43L19.10 8.43Q19.29 7.91 19.43 7.41L19.43 7.41L19.43 7.41Q19.56 6.92 19.68 6.31L19.68 6.31L19.68 6.31Q19.80 5.71 19.96 4.79L19.96 4.79L19.96 4.79Q20.55 4.90 21.04 5.31L21.04 5.31L21.04 5.31Q21.52 5.71 21.87 6.29L21.87 6.29L21.87 6.29Q21.74 6.45 21.56 6.79L21.56 6.79L21.56 6.79Q21.38 7.13 21.16 7.59L21.16 7.59L21.16 7.59Q20.94 8.06 20.69 8.64L20.69 8.64L20.69 8.64Q20.44 9.23 20.15 9.87L20.15 9.87L20.15 9.87Q21.01 9.76 21.90 9.66L21.90 9.66L21.90 9.66Q22.79 9.56 23.48 9.52L23.48 9.52L23.48 9.52Q23.73 8.79 24.00 8.10L24.00 8.10L24.00 8.10Q24.28 7.41 24.54 6.83L24.54 6.83L24.54 6.83Q24.81 6.26 25.05 5.82L25.05 5.82L25.05 5.82Q25.30 5.39 25.49 5.18L25.49 5.18L25.49 5.18Q25.63 5.19 25.87 5.29L25.87 5.29L25.87 5.29Q26.10 5.38 26.33 5.50L26.33 5.50L26.33 5.50Q26.57 5.63 26.77 5.78L26.77 5.78L26.77 5.78Q26.96 5.92 27.03 6.05L27.03 6.05L27.03 6.05Q26.78 6.29 26.53 6.66L26.53 6.66L26.53 6.66Q26.28 7.04 26.03 7.53L26.03 7.53L26.03 7.53Q25.79 8.02 25.55 8.60L25.55 8.60L25.55 8.60Q25.31 9.17 25.10 9.79L25.10 9.79L25.10 9.79Q25.38 10.04 25.38 10.42L25.38 10.42L25.38 10.42Q25.38 10.68 25.27 10.91L25.27 10.91L25.27 10.91Q25.14 10.88 25.02 10.87L25.02 10.87L25.02 10.87Q24.89 10.86 24.75 10.85L24.75 10.85L24.75 10.85Q24.51 11.61 24.32 12.35L24.32 12.35L24.32 12.35Q24.12 13.09 23.99 13.76L23.99 13.76L23.99 13.76Q23.86 14.43 23.78 14.99L23.78 14.99L23.78 14.99Q23.70 15.55 23.70 15.93L23.70 15.93L23.70 15.93Q23.70 16.07 23.71 16.16L23.71 16.16L23.71 16.16Q23.72 16.24 23.73 16.30L23.73 16.30L23.73 16.30Q23.42 16.28 23.28 16.19L23.28 16.19L23.28 16.19Q23.14 16.10 23.07 16.00L23.07 16.00L23.07 16.00Q23.00 15.89 22.95 15.79L22.95 15.79L22.95 15.79Q22.89 15.68 22.76 15.62L22.76 15.62L22.76 15.62Q22.67 15.58 22.58 15.43L22.58 15.43L22.58 15.43Q22.50 15.27 22.44 15.08L22.44 15.08L22.44 15.08Q22.39 14.88 22.36 14.69L22.36 14.69L22.36 14.69Q22.33 14.49 22.33 14.36ZM39.77 4.98L39.77 4.98L39.77 4.98Q40.04 5.10 40.32 5.27L40.32 5.27L40.32 5.27Q40.60 5.45 40.84 5.63L40.84 5.63L40.84 5.63Q41.08 5.81 41.24 5.98L41.24 5.98L41.24 5.98Q41.40 6.16 41.41 6.27L41.41 6.27L41.41 6.27Q41.17 6.22 40.94 6.20L40.94 6.20L40.94 6.20Q40.70 6.17 40.50 6.17L40.50 6.17L40.50 6.17Q39.87 6.17 39.25 6.48L39.25 6.48L39.25 6.48Q38.63 6.79 38.07 7.32L38.07 7.32L38.07 7.32Q37.51 7.85 37.03 8.57L37.03 8.57L37.03 8.57Q36.55 9.28 36.21 10.09L36.21 10.09L36.21 10.09Q35.87 10.91 35.67 11.77L35.67 11.77L35.67 11.77Q35.48 12.64 35.48 13.48L35.48 13.48L35.48 13.48Q35.48 14.57 35.84 15.11L35.84 15.11L35.84 15.11Q36.20 15.64 36.90 15.64L36.90 15.64L36.90 15.64Q37.24 15.64 37.63 15.51L37.63 15.51L37.63 15.51Q38.02 15.37 38.43 15.13L38.43 15.13L38.43 15.13Q38.84 14.90 39.23 14.56L39.23 14.56L39.23 14.56Q39.62 14.22 39.96 13.82L39.96 13.82L39.96 13.82Q40.45 13.23 40.84 12.48L40.84 12.48L40.84 12.48Q41.23 11.73 41.50 10.89L41.50 10.89L41.50 10.89Q41.78 10.05 41.92 9.16L41.92 9.16L41.92 9.16Q42.07 8.27 42.07 7.42L42.07 7.42L42.07 7.42Q42.07 7.08 42.06 6.85L42.06 6.85L42.06 6.85Q42.04 6.62 42.02 6.46L42.02 6.46L42.02 6.46Q42 6.30 41.99 6.20L41.99 6.20L41.99 6.20Q41.97 6.10 41.96 6.03L41.96 6.03L41.96 6.03Q42.13 6.12 42.33 6.24L42.33 6.24L42.33 6.24Q42.53 6.36 42.71 6.59L42.71 6.59L42.71 6.59Q42.88 6.82 43.00 7.20L43.00 7.20L43.00 7.20Q43.12 7.57 43.12 8.18L43.12 8.18L43.12 8.18Q43.12 9.16 42.89 10.10L42.89 10.10L42.89 10.10Q42.66 11.05 42.24 11.90L42.24 11.90L42.24 11.90Q41.83 12.75 41.27 13.50L41.27 13.50L41.27 13.50Q40.71 14.24 40.07 14.80L40.07 14.80L40.07 14.80Q39.23 15.54 38.28 15.95L38.28 15.95L38.28 15.95Q37.32 16.35 36.44 16.35L36.44 16.35L36.44 16.35Q35.15 16.35 34.48 15.53L34.48 15.53L34.48 15.53Q33.80 14.71 33.80 13.12L33.80 13.12L33.80 13.12Q33.80 12.26 33.98 11.31L33.98 11.31L33.98 11.31Q34.17 10.36 34.52 9.44L34.52 9.44L34.52 9.44Q34.86 8.51 35.34 7.68L35.34 7.68L35.34 7.68Q35.81 6.85 36.38 6.21L36.38 6.21L36.38 6.21Q36.95 5.57 37.60 5.19L37.60 5.19L37.60 5.19Q38.25 4.82 38.93 4.82L38.93 4.82L38.93 4.82Q39.16 4.82 39.35 4.85L39.35 4.85L39.35 4.85Q39.55 4.89 39.77 4.98ZM56.90 4.98L56.90 4.98L56.90 4.98Q57.16 5.10 57.44 5.27L57.44 5.27L57.44 5.27Q57.72 5.45 57.96 5.63L57.96 5.63L57.96 5.63Q58.20 5.81 58.36 5.98L58.36 5.98L58.36 5.98Q58.52 6.16 58.53 6.27L58.53 6.27L58.53 6.27Q58.30 6.22 58.06 6.20L58.06 6.20L58.06 6.20Q57.82 6.17 57.62 6.17L57.62 6.17L57.62 6.17Q56.99 6.17 56.37 6.48L56.37 6.48L56.37 6.48Q55.75 6.79 55.19 7.32L55.19 7.32L55.19 7.32Q54.63 7.85 54.15 8.57L54.15 8.57L54.15 8.57Q53.68 9.28 53.33 10.09L53.33 10.09L53.33 10.09Q52.99 10.91 52.79 11.77L52.79 11.77L52.79 11.77Q52.60 12.64 52.60 13.48L52.60 13.48L52.60 13.48Q52.60 14.57 52.96 15.11L52.96 15.11L52.96 15.11Q53.33 15.64 54.03 15.64L54.03 15.64L54.03 15.64Q54.36 15.64 54.75 15.51L54.75 15.51L54.75 15.51Q55.15 15.37 55.55 15.13L55.55 15.13L55.55 15.13Q55.96 14.90 56.35 14.56L56.35 14.56L56.35 14.56Q56.74 14.22 57.08 13.82L57.08 13.82L57.08 13.82Q57.57 13.23 57.96 12.48L57.96 12.48L57.96 12.48Q58.35 11.73 58.63 10.89L58.63 10.89L58.63 10.89Q58.90 10.05 59.05 9.16L59.05 9.16L59.05 9.16Q59.19 8.27 59.19 7.42L59.19 7.42L59.19 7.42Q59.19 7.08 59.18 6.85L59.18 6.85L59.18 6.85Q59.16 6.62 59.14 6.46L59.14 6.46L59.14 6.46Q59.12 6.30 59.11 6.20L59.11 6.20L59.11 6.20Q59.09 6.10 59.08 6.03L59.08 6.03L59.08 6.03Q59.25 6.12 59.45 6.24L59.45 6.24L59.45 6.24Q59.65 6.36 59.83 6.59L59.83 6.59L59.83 6.59Q60.00 6.82 60.12 7.20L60.12 7.20L60.12 7.20Q60.24 7.57 60.24 8.18L60.24 8.18L60.24 8.18Q60.24 9.16 60.01 10.10L60.01 10.10L60.01 10.10Q59.78 11.05 59.37 11.90L59.37 11.90L59.37 11.90Q58.95 12.75 58.39 13.50L58.39 13.50L58.39 13.50Q57.83 14.24 57.19 14.80L57.19 14.80L57.19 14.80Q56.35 15.54 55.40 15.95L55.40 15.95L55.40 15.95Q54.45 16.35 53.56 16.35L53.56 16.35L53.56 16.35Q52.28 16.35 51.60 15.53L51.60 15.53L51.60 15.53Q50.92 14.71 50.92 13.12L50.92 13.12L50.92 13.12Q50.92 12.26 51.11 11.31L51.11 11.31L51.11 11.31Q51.30 10.36 51.64 9.44L51.64 9.44L51.64 9.44Q51.98 8.51 52.46 7.68L52.46 7.68L52.46 7.68Q52.93 6.85 53.50 6.21L53.50 6.21L53.50 6.21Q54.07 5.57 54.72 5.19L54.72 5.19L54.72 5.19Q55.37 4.82 56.06 4.82L56.06 4.82L56.06 4.82Q56.28 4.82 56.48 4.85L56.48 4.85L56.48 4.85Q56.67 4.89 56.90 4.98ZM76.69 5.74L76.69 5.74L76.69 5.74Q76.73 5.98 76.76 6.07L76.76 6.07L76.76 6.07Q76.78 6.16 76.78 6.31L76.78 6.31L76.78 6.31Q76.78 6.78 76.57 7.18L76.57 7.18L76.57 7.18Q76.37 7.57 76.02 7.74L76.02 7.74L76.02 7.74Q75.74 7.36 75.33 7.09L75.33 7.09L75.33 7.09Q74.93 6.82 74.45 6.64L74.45 6.64L74.45 6.64Q73.96 6.47 73.44 6.38L73.44 6.38L73.44 6.38Q72.93 6.30 72.44 6.30L72.44 6.30L72.44 6.30Q71.95 6.30 71.52 6.38L71.52 6.38L71.52 6.38Q71.09 6.45 70.76 6.59L70.76 6.59L70.76 6.59Q70.43 6.72 70.25 6.92L70.25 6.92L70.25 6.92Q70.06 7.11 70.06 7.36L70.06 7.36L70.06 7.36Q70.10 7.67 70.43 7.99L70.43 7.99L70.43 7.99Q70.77 8.30 71.26 8.60L71.26 8.60L71.26 8.60Q71.75 8.90 72.34 9.20L72.34 9.20L72.34 9.20Q72.94 9.49 73.51 9.76L73.51 9.76L73.51 9.76Q74.23 10.09 74.75 10.38L74.75 10.38L74.75 10.38Q75.26 10.67 75.60 11.01L75.60 11.01L75.60 11.01Q75.94 11.35 76.10 11.79L76.10 11.79L76.10 11.79Q76.27 12.22 76.27 12.84L76.27 12.84L76.27 12.84Q76.27 13.55 76.03 14.18L76.03 14.18L76.03 14.18Q75.80 14.80 75.34 15.26L75.34 15.26L75.34 15.26Q74.89 15.72 74.24 15.98L74.24 15.98L74.24 15.98Q73.60 16.24 72.80 16.24L72.80 16.24L72.80 16.24Q72.02 16.24 71.11 16.00L71.11 16.00L71.11 16.00Q70.20 15.76 69.41 15.35L69.41 15.35L69.41 15.35Q68.61 14.94 68.09 14.40L68.09 14.40L68.09 14.40Q67.56 13.86 67.56 13.26L67.56 13.26L67.56 13.26Q67.56 12.98 67.73 12.54L67.73 12.54L67.73 12.54Q67.89 12.11 68.31 11.63L68.31 11.63L68.31 11.63Q68.35 12.05 68.76 12.63L68.76 12.63L68.76 12.63Q69.17 13.20 70 13.69L70 13.69L70 13.69Q70.77 14.14 71.59 14.34L71.59 14.34L71.59 14.34Q72.41 14.55 73.12 14.55L73.12 14.55L73.12 14.55Q73.91 14.55 74.40 14.35L74.40 14.35L74.40 14.35Q74.89 14.15 75.17 13.88L75.17 13.88L75.17 13.88Q75.45 13.61 75.56 13.33L75.56 13.33L75.56 13.33Q75.67 13.05 75.68 12.88L75.68 12.88L75.68 12.88Q75.67 12.60 75.43 12.34L75.43 12.34L75.43 12.34Q75.18 12.08 74.77 11.84L74.77 11.84L74.77 11.84Q74.35 11.59 73.81 11.34L73.81 11.34L73.81 11.34Q73.26 11.09 72.67 10.84L72.67 10.84L72.67 10.84Q71.79 10.44 71.16 10.10L71.16 10.10L71.16 10.10Q70.52 9.76 70.11 9.40L70.11 9.40L70.11 9.40Q69.69 9.04 69.50 8.65L69.50 8.65L69.50 8.65Q69.31 8.26 69.31 7.76L69.31 7.76L69.31 7.76Q69.31 6.97 69.79 6.27L69.79 6.27L69.79 6.27Q70.27 5.57 71.16 5.21L71.16 5.21L71.16 5.21Q71.61 5.01 72.12 4.93L72.12 4.93L72.12 4.93Q72.63 4.84 73.12 4.84L73.12 4.84L73.12 4.84Q74.05 4.84 74.93 5.10L74.93 5.10L74.93 5.10Q75.81 5.35 76.69 5.74ZM90.17 9.21L90.17 9.21L90.17 9.21Q90.64 9.21 90.90 9.46L90.90 9.46L90.90 9.46Q91.15 9.72 91.15 10.16L91.15 10.16L91.15 10.16Q91.15 10.28 91.13 10.39L91.13 10.39L91.13 10.39Q91.11 10.51 91.08 10.60L91.08 10.60L91.08 10.60Q90.90 10.57 90.68 10.55L90.68 10.55L90.68 10.55Q90.45 10.53 90.15 10.53L90.15 10.53L90.15 10.53Q89.54 10.53 88.93 10.63L88.93 10.63L88.93 10.63Q88.31 10.74 87.75 10.81L87.75 10.81L87.75 10.81Q87.43 11.55 87.16 12.24L87.16 12.24L87.16 12.24Q86.90 12.94 86.71 13.51L86.71 13.51L86.71 13.51Q86.52 14.08 86.42 14.50L86.42 14.50L86.42 14.50Q86.31 14.92 86.30 15.13L86.30 15.13L86.30 15.13Q87.43 14.90 88.59 14.73L88.59 14.73L88.59 14.73Q89.74 14.56 91.01 14.48L91.01 14.48L91.01 14.48Q91.17 14.71 91.27 14.99L91.27 14.99L91.27 14.99Q91.38 15.27 91.38 15.60L91.38 15.60L91.38 15.60Q91.38 15.68 91.38 15.78L91.38 15.78L91.38 15.78Q91.38 15.88 91.35 15.97L91.35 15.97L91.35 15.97Q90.96 15.96 90.52 15.95L90.52 15.95L90.52 15.95Q90.09 15.95 89.39 15.95L89.39 15.95L89.39 15.95Q88.93 15.95 88.52 15.97L88.52 15.97L88.52 15.97Q88.10 15.99 87.68 16.03L87.68 16.03L87.68 16.03Q87.26 16.07 86.79 16.14L86.79 16.14L86.79 16.14Q86.32 16.21 85.74 16.31L85.74 16.31L85.74 16.31Q85.09 16.06 84.49 15.08L84.49 15.08L84.49 15.08Q84.73 14.57 85.16 13.54L85.16 13.54L85.16 13.54Q85.58 12.52 86.24 10.79L86.24 10.79L86.24 10.79Q85.61 10.60 85.41 10.09L85.41 10.09L85.41 10.09Q85.48 10.02 85.82 9.92L85.82 9.92L85.82 9.92Q86.16 9.81 86.65 9.70L86.65 9.70L86.65 9.70Q86.86 9.16 87.00 8.75L87.00 8.75L87.00 8.75Q87.15 8.34 87.26 7.99L87.26 7.99L87.26 7.99Q87.37 7.63 87.47 7.29L87.47 7.29L87.47 7.29Q87.56 6.94 87.64 6.54L87.64 6.54L87.64 6.54Q87.15 6.51 86.87 6.27L86.87 6.27L86.87 6.27Q86.59 6.02 86.59 5.63L86.59 5.63L86.59 5.63Q86.59 5.52 86.63 5.36L86.63 5.36L86.63 5.36Q86.66 5.21 86.70 5.10L86.70 5.10L86.70 5.10Q86.98 5.14 87.24 5.15L87.24 5.15L87.24 5.15Q87.50 5.17 87.92 5.17L87.92 5.17L87.92 5.17Q88.80 5.17 89.57 5.12L89.57 5.12L89.57 5.12Q90.34 5.07 90.97 5.01L90.97 5.01L90.97 5.01Q91.59 4.96 92.04 4.91L92.04 4.91L92.04 4.91Q92.48 4.86 92.72 4.86L92.72 4.86L92.72 4.86Q93.04 4.86 93.30 5.19L93.30 5.19L93.30 5.19Q93.55 5.53 93.67 6.15L93.67 6.15L93.67 6.15Q93.24 6.10 92.97 6.09L92.97 6.09L92.97 6.09Q92.69 6.08 92.48 6.08L92.48 6.08L92.48 6.08Q91.71 6.08 91.08 6.15L91.08 6.15L91.08 6.15Q90.44 6.23 89.85 6.31L89.85 6.31L89.85 6.31Q89.77 6.44 89.66 6.64L89.66 6.64L89.66 6.64Q89.56 6.83 89.39 7.18L89.39 7.18L89.39 7.18Q89.22 7.53 88.98 8.06L88.98 8.06L88.98 8.06Q88.73 8.60 88.38 9.39L88.38 9.39L88.38 9.39Q88.91 9.31 89.38 9.26L89.38 9.26L89.38 9.26Q89.85 9.21 90.17 9.21ZM115.42 10.35L115.42 10.35L115.42 10.35Q116.47 9.20 117.30 7.91L117.30 7.91L117.30 7.91Q118.13 6.62 118.85 5.01L118.85 5.01L118.85 5.01Q119.21 5.05 119.55 5.21L119.55 5.21L119.55 5.21Q119.88 5.36 120.08 5.56L120.08 5.56L120.08 5.56Q119.31 6.48 118.69 7.24L118.69 7.24L118.69 7.24Q118.06 7.99 117.54 8.66L117.54 8.66L117.54 8.66Q117.03 9.32 116.58 9.93L116.58 9.93L116.58 9.93Q116.14 10.54 115.72 11.16L115.72 11.16L115.72 11.16Q115.51 11.87 115.33 12.60L115.33 12.60L115.33 12.60Q115.15 13.33 115.01 13.99L115.01 13.99L115.01 13.99Q114.87 14.66 114.79 15.22L114.79 15.22L114.79 15.22Q114.72 15.79 114.72 16.20L114.72 16.20L114.72 16.20Q114.56 16.20 114.23 16.14L114.23 16.14L114.23 16.14Q113.89 16.07 113.54 15.99L113.54 15.99L113.54 15.99Q113.19 15.90 112.90 15.82L112.90 15.82L112.90 15.82Q112.62 15.74 112.56 15.68L112.56 15.68L112.56 15.68Q112.78 15.30 113.00 14.75L113.00 14.75L113.00 14.75Q113.22 14.20 113.43 13.59L113.43 13.59L113.43 13.59Q113.64 12.98 113.83 12.36L113.83 12.36L113.83 12.36Q114.03 11.73 114.20 11.20L114.20 11.20L114.20 11.20Q113.85 10.11 113.52 9.15L113.52 9.15L113.52 9.15Q113.19 8.19 112.88 7.41L112.88 7.41L112.88 7.41Q112.57 6.64 112.29 6.08L112.29 6.08L112.29 6.08Q112.01 5.52 111.76 5.22L111.76 5.22L111.76 5.22Q111.90 5.17 112.19 5.11L112.19 5.11L112.19 5.11Q112.48 5.05 112.82 5.00L112.82 5.00L112.82 5.00Q113.16 4.94 113.52 4.91L113.52 4.91L113.52 4.91Q113.88 4.87 114.16 4.86L114.16 4.86L114.16 4.86Q114.16 5.21 114.22 5.71L114.22 5.71L114.22 5.71Q114.28 6.22 114.39 6.79L114.39 6.79L114.39 6.79Q114.49 7.36 114.63 7.95L114.63 7.95L114.63 7.95Q114.77 8.54 114.91 9.03L114.91 9.03L114.91 9.03Q115.05 9.52 115.19 9.88L115.19 9.88L115.19 9.88Q115.32 10.23 115.42 10.35ZM132.06 4.98L132.06 4.98L132.06 4.98Q132.33 5.10 132.61 5.27L132.61 5.27L132.61 5.27Q132.89 5.45 133.13 5.63L133.13 5.63L133.13 5.63Q133.36 5.81 133.53 5.98L133.53 5.98L133.53 5.98Q133.69 6.16 133.70 6.27L133.70 6.27L133.70 6.27Q133.46 6.22 133.22 6.20L133.22 6.20L133.22 6.20Q132.99 6.17 132.79 6.17L132.79 6.17L132.79 6.17Q132.16 6.17 131.54 6.48L131.54 6.48L131.54 6.48Q130.91 6.79 130.35 7.32L130.35 7.32L130.35 7.32Q129.79 7.85 129.32 8.57L129.32 8.57L129.32 8.57Q128.84 9.28 128.50 10.09L128.50 10.09L128.50 10.09Q128.16 10.91 127.96 11.77L127.96 11.77L127.96 11.77Q127.76 12.64 127.76 13.48L127.76 13.48L127.76 13.48Q127.76 14.57 128.13 15.11L128.13 15.11L128.13 15.11Q128.49 15.64 129.19 15.64L129.19 15.64L129.19 15.64Q129.53 15.64 129.92 15.51L129.92 15.51L129.92 15.51Q130.31 15.37 130.72 15.13L130.72 15.13L130.72 15.13Q131.12 14.90 131.52 14.56L131.52 14.56L131.52 14.56Q131.91 14.22 132.24 13.82L132.24 13.82L132.24 13.82Q132.73 13.23 133.13 12.48L133.13 12.48L133.13 12.48Q133.52 11.73 133.79 10.89L133.79 10.89L133.79 10.89Q134.06 10.05 134.21 9.16L134.21 9.16L134.21 9.16Q134.36 8.27 134.36 7.42L134.36 7.42L134.36 7.42Q134.36 7.08 134.34 6.85L134.34 6.85L134.34 6.85Q134.33 6.62 134.31 6.46L134.31 6.46L134.31 6.46Q134.29 6.30 134.27 6.20L134.27 6.20L134.27 6.20Q134.26 6.10 134.25 6.03L134.25 6.03L134.25 6.03Q134.41 6.12 134.62 6.24L134.62 6.24L134.62 6.24Q134.82 6.36 135.00 6.59L135.00 6.59L135.00 6.59Q135.17 6.82 135.29 7.20L135.29 7.20L135.29 7.20Q135.41 7.57 135.41 8.18L135.41 8.18L135.41 8.18Q135.41 9.16 135.18 10.10L135.18 10.10L135.18 10.10Q134.95 11.05 134.53 11.90L134.53 11.90L134.53 11.90Q134.12 12.75 133.56 13.50L133.56 13.50L133.56 13.50Q133 14.24 132.36 14.80L132.36 14.80L132.36 14.80Q131.52 15.54 130.56 15.95L130.56 15.95L130.56 15.95Q129.61 16.35 128.73 16.35L128.73 16.35L128.73 16.35Q127.44 16.35 126.76 15.53L126.76 15.53L126.76 15.53Q126.08 14.71 126.08 13.12L126.08 13.12L126.08 13.12Q126.08 12.26 126.27 11.31L126.27 11.31L126.27 11.31Q126.46 10.36 126.81 9.44L126.81 9.44L126.81 9.44Q127.15 8.51 127.62 7.68L127.62 7.68L127.62 7.68Q128.10 6.85 128.67 6.21L128.67 6.21L128.67 6.21Q129.23 5.57 129.88 5.19L129.88 5.19L129.88 5.19Q130.54 4.82 131.22 4.82L131.22 4.82L131.22 4.82Q131.45 4.82 131.64 4.85L131.64 4.85L131.64 4.85Q131.84 4.89 132.06 4.98ZM148.11 5.75L148.11 5.75L148.11 5.75Q147.49 6.58 146.99 7.57L146.99 7.57L146.99 7.57Q146.48 8.57 146.13 9.61L146.13 9.61L146.13 9.61Q145.77 10.65 145.58 11.67L145.58 11.67L145.58 11.67Q145.39 12.68 145.39 13.57L145.39 13.57L145.39 13.57Q145.39 14.66 145.71 15.15L145.71 15.15L145.71 15.15Q146.03 15.64 146.82 15.64L146.82 15.64L146.82 15.64Q147.73 15.64 148.41 15.00L148.41 15.00L148.41 15.00Q149.10 14.36 149.70 13.24L149.70 13.24L149.70 13.24Q150.09 12.52 150.37 11.65L150.37 11.65L150.37 11.65Q150.65 10.78 150.83 9.86L150.83 9.86L150.83 9.86Q151.00 8.95 151.09 8.02L151.09 8.02L151.09 8.02Q151.17 7.08 151.17 6.23L151.17 6.23L151.17 6.23Q151.17 5.68 151.16 5.43L151.16 5.43L151.16 5.43Q151.14 5.18 151.12 5.03L151.12 5.03L151.12 5.03Q151.16 5.03 151.33 5.05L151.33 5.05L151.33 5.05Q151.49 5.08 151.71 5.12L151.71 5.12L151.71 5.12Q151.93 5.17 152.15 5.24L152.15 5.24L152.15 5.24Q152.36 5.31 152.52 5.39L152.52 5.39L152.52 5.39Q152.45 6.45 152.26 7.59L152.26 7.59L152.26 7.59Q152.07 8.72 151.76 9.83L151.76 9.83L151.76 9.83Q151.45 10.93 151.05 11.96L151.05 11.96L151.05 11.96Q150.64 12.98 150.14 13.79L150.14 13.79L150.14 13.79Q149.39 14.99 148.47 15.67L148.47 15.67L148.47 15.67Q147.55 16.35 146.29 16.35L146.29 16.35L146.29 16.35Q145.00 16.35 144.28 15.60L144.28 15.60L144.28 15.60Q143.57 14.85 143.57 13.33L143.57 13.33L143.57 13.33Q143.57 12.45 143.77 11.33L143.77 11.33L143.77 11.33Q143.96 10.22 144.29 9.07L144.29 9.07L144.29 9.07Q144.62 7.91 145.05 6.81L145.05 6.81L145.05 6.81Q145.49 5.71 145.96 4.84L145.96 4.84L145.96 4.84Q146.20 4.86 146.52 4.94L146.52 4.94L146.52 4.94Q146.85 5.03 147.15 5.16L147.15 5.16L147.15 5.16Q147.46 5.29 147.72 5.45L147.72 5.45L147.72 5.45Q147.98 5.61 148.11 5.75ZM169.01 7.46L169.01 7.46L169.01 7.46Q169.01 8.13 168.71 8.73L168.71 8.73L168.71 8.73Q168.41 9.32 167.87 9.79L167.87 9.79L167.87 9.79Q167.34 10.26 166.63 10.58L166.63 10.58L166.63 10.58Q165.91 10.91 165.07 11.02L165.07 11.02L165.07 11.02Q165.28 11.65 165.59 12.31L165.59 12.31L165.59 12.31Q165.89 12.98 166.24 13.59L166.24 13.59L166.24 13.59Q166.59 14.21 166.96 14.73L166.96 14.73L166.96 14.73Q167.34 15.25 167.71 15.58L167.71 15.58L167.71 15.58Q167.64 15.72 167.50 15.86L167.50 15.86L167.50 15.86Q167.37 16.00 167.20 16.12L167.20 16.12L167.20 16.12Q167.02 16.24 166.83 16.32L166.83 16.32L166.83 16.32Q166.64 16.39 166.47 16.39L166.47 16.39L166.47 16.39Q166.17 16.39 165.89 16.10L165.89 16.10L165.89 16.10Q165.61 15.81 165.32 15.17L165.32 15.17L165.32 15.17Q165.03 14.53 164.72 13.52L164.72 13.52L164.72 13.52Q164.40 12.50 164.02 11.07L164.02 11.07L164.02 11.07Q163.87 11.07 163.72 11.07L163.72 11.07L163.72 11.07Q163.56 11.07 163.48 11.05L163.48 11.05L163.48 11.05Q163.38 10.99 163.27 10.85L163.27 10.85L163.27 10.85Q162.89 11.66 162.60 12.38L162.60 12.38L162.60 12.38Q162.30 13.09 162.07 13.76L162.07 13.76L162.07 13.76Q161.84 14.42 161.67 15.04L161.67 15.04L161.67 15.04Q161.49 15.67 161.36 16.31L161.36 16.31L161.36 16.31Q160.89 16.20 160.54 15.90L160.54 15.90L160.54 15.90Q160.19 15.61 159.88 15.08L159.88 15.08L159.88 15.08Q159.94 14.95 160.00 14.83L160.00 14.83L160.00 14.83Q160.06 14.71 160.16 14.50L160.16 14.50L160.16 14.50Q160.26 14.28 160.41 13.94L160.41 13.94L160.41 13.94Q160.55 13.61 160.80 13.05L160.80 13.05L160.80 13.05Q161.04 12.49 161.39 11.68L161.39 11.68L161.39 11.68Q161.73 10.86 162.22 9.70L162.22 9.70L162.22 9.70Q162.44 9.18 162.60 8.79L162.60 8.79L162.60 8.79Q162.76 8.40 162.89 8.04L162.89 8.04L162.89 8.04Q163.02 7.69 163.12 7.33L163.12 7.33L163.12 7.33Q163.23 6.97 163.34 6.51L163.34 6.51L163.34 6.51Q162.69 6.73 162.14 7.01L162.14 7.01L162.14 7.01Q161.59 7.28 161.22 7.59L161.22 7.59L161.22 7.59Q161.10 7.50 160.97 7.34L160.97 7.34L160.97 7.34Q160.83 7.17 160.72 6.96L160.72 6.96L160.72 6.96Q160.61 6.76 160.52 6.55L160.52 6.55L160.52 6.55Q160.44 6.34 160.43 6.17L160.43 6.17L160.43 6.17Q160.85 5.89 161.46 5.66L161.46 5.66L161.46 5.66Q162.06 5.42 162.75 5.24L162.75 5.24L162.75 5.24Q163.44 5.07 164.15 4.97L164.15 4.97L164.15 4.97Q164.86 4.87 165.48 4.87L165.48 4.87L165.48 4.87Q167.16 4.87 168.08 5.56L168.08 5.56L168.08 5.56Q169.01 6.26 169.01 7.46ZM165.42 6.02L165.59 6.29L165.59 6.29Q165.49 6.41 165.28 6.79L165.28 6.79L165.28 6.79Q165.07 7.17 164.80 7.69L164.80 7.69L164.80 7.69Q164.53 8.22 164.23 8.83L164.23 8.83L164.23 8.83Q163.93 9.45 163.65 10.05L163.65 10.05L163.65 10.05Q164.70 10.05 165.58 9.86L165.58 9.86L165.58 9.86Q166.46 9.66 167.10 9.30L167.10 9.30L167.10 9.30Q167.75 8.95 168.11 8.46L168.11 8.46L168.11 8.46Q168.46 7.98 168.46 7.39L168.46 7.39L168.46 7.39Q168.46 6.69 167.96 6.32L167.96 6.32L167.96 6.32Q167.45 5.95 166.40 5.95L166.40 5.95L166.40 5.95Q166.17 5.95 165.93 5.97L165.93 5.97L165.93 5.97Q165.69 5.99 165.42 6.02L165.42 6.02ZM188.29 15.61L188.29 15.61L188.29 15.61Q188.22 15.04 188.18 14.36L188.18 14.36L188.18 14.36Q188.15 13.68 188.15 13.09L188.15 13.09L188.15 13.09Q188.15 12.15 188.21 11.29L188.21 11.29L188.21 11.29Q188.27 10.43 188.36 9.48L188.36 9.48L188.36 9.48Q188.45 8.54 188.57 7.43L188.57 7.43L188.57 7.43Q188.68 6.31 188.76 4.86L188.76 4.86L188.76 4.86Q188.94 4.86 189.29 4.96L189.29 4.96L189.29 4.96Q189.63 5.07 189.98 5.21L189.98 5.21L189.98 5.21Q190.33 5.35 190.60 5.49L190.60 5.49L190.60 5.49Q190.86 5.64 190.90 5.74L190.90 5.74L190.90 5.74Q190.67 6.29 190.48 7.18L190.48 7.18L190.48 7.18Q190.29 8.06 190.16 9.11L190.16 9.11L190.16 9.11Q190.04 10.16 189.97 11.27L189.97 11.27L189.97 11.27Q189.90 12.38 189.90 13.34L189.90 13.34L189.90 13.34Q189.90 13.79 189.91 14.22L189.91 14.22L189.91 14.22Q189.92 14.66 189.95 15.02L189.95 15.02L189.95 15.02Q190.25 14.59 190.63 13.78L190.63 13.78L190.63 13.78Q191.02 12.98 191.43 11.98L191.43 11.98L191.43 11.98Q191.84 10.99 192.26 9.91L192.26 9.91L192.26 9.91Q192.67 8.82 193.02 7.83L193.02 7.83L193.02 7.83Q193.37 6.85 193.61 6.05L193.61 6.05L193.61 6.05Q193.86 5.26 193.96 4.86L193.96 4.86L193.96 4.86Q194.14 4.86 194.50 4.96L194.50 4.96L194.50 4.96Q194.85 5.07 195.20 5.21L195.20 5.21L195.20 5.21Q195.54 5.35 195.80 5.49L195.80 5.49L195.80 5.49Q196.07 5.64 196.10 5.74L196.10 5.74L196.10 5.74Q195.86 6.29 195.67 7.18L195.67 7.18L195.67 7.18Q195.48 8.06 195.36 9.11L195.36 9.11L195.36 9.11Q195.23 10.16 195.16 11.27L195.16 11.27L195.16 11.27Q195.09 12.38 195.09 13.34L195.09 13.34L195.09 13.34Q195.09 13.75 195.10 14.15L195.10 14.15L195.10 14.15Q195.10 14.55 195.13 14.87L195.13 14.87L195.13 14.87Q195.58 13.71 196.06 12.56L196.06 12.56L196.06 12.56Q196.55 11.42 197.02 10.38L197.02 10.38L197.02 10.38Q197.50 9.34 197.95 8.43L197.95 8.43L197.95 8.43Q198.39 7.53 198.77 6.82L198.77 6.82L198.77 6.82Q199.15 6.12 199.43 5.66L199.43 5.66L199.43 5.66Q199.71 5.19 199.86 5.04L199.86 5.04L199.86 5.04Q200.19 5.08 200.53 5.27L200.53 5.27L200.53 5.27Q200.87 5.46 201.14 5.75L201.14 5.75L201.14 5.75Q200.73 6.08 200.21 6.81L200.21 6.81L200.21 6.81Q199.70 7.55 199.15 8.51L199.15 8.51L199.15 8.51Q198.60 9.48 198.05 10.57L198.05 10.57L198.05 10.57Q197.50 11.66 197.02 12.70L197.02 12.70L197.02 12.70Q196.55 13.73 196.18 14.63L196.18 14.63L196.18 14.63Q195.80 15.53 195.61 16.07L195.61 16.07L195.61 16.07Q195.24 16.24 194.89 16.24L194.89 16.24L194.89 16.24Q194.45 16.18 194.05 16.02L194.05 16.02L194.05 16.02Q193.65 15.85 193.48 15.61L193.48 15.61L193.48 15.61Q193.44 15.39 193.41 15.09L193.41 15.09L193.41 15.09Q193.38 14.78 193.37 14.49L193.37 14.49L193.37 14.49Q193.35 14.20 193.35 13.92L193.35 13.92L193.35 13.92Q193.34 13.65 193.34 13.45L193.34 13.45L193.34 13.45Q193.34 12.21 193.44 10.91L193.44 10.91L193.44 10.91Q193.54 9.62 193.68 8.13L193.68 8.13L193.68 8.13Q193.35 9.09 192.96 10.18L192.96 10.18L192.96 10.18Q192.57 11.27 192.14 12.34L192.14 12.34L192.14 12.34Q191.72 13.41 191.28 14.38L191.28 14.38L191.28 14.38Q190.83 15.36 190.41 16.07L190.41 16.07L190.41 16.07Q190.05 16.24 189.70 16.24L189.70 16.24L189.70 16.24Q189.25 16.18 188.85 16.02L188.85 16.02L188.85 16.02Q188.45 15.85 188.29 15.61ZM207.28 16.24L207.28 16.24L207.28 16.24Q206.61 16.04 206.35 15.85L206.35 15.85L206.35 15.85Q206.09 15.65 206.09 15.36L206.09 15.36L206.09 15.36Q206.09 15.13 206.22 14.73L206.22 14.73L206.22 14.73Q206.35 14.32 206.59 13.77L206.59 13.77L206.59 13.77Q206.84 13.22 207.18 12.54L207.18 12.54L207.18 12.54Q207.52 11.87 207.96 11.10L207.96 11.10L207.96 11.10Q207.59 11.09 207.31 11.08L207.31 11.08L207.31 11.08Q207.02 11.07 206.84 11.07L206.84 11.07L206.84 11.07Q206.92 10.86 207.31 10.71L207.31 10.71L207.31 10.71Q207.70 10.56 208.35 10.44L208.35 10.44L208.35 10.44Q208.89 9.53 209.52 8.71L209.52 8.71L209.52 8.71Q210.14 7.88 210.77 7.19L210.77 7.19L210.77 7.19Q211.40 6.50 212.03 5.97L212.03 5.97L212.03 5.97Q212.66 5.45 213.23 5.14L213.23 5.14L213.23 5.14Q213.25 5.04 213.26 4.97L213.26 4.97L213.26 4.97Q213.26 4.90 213.26 4.87L213.26 4.87L213.26 4.87Q213.46 4.87 213.79 4.97L213.79 4.97L213.79 4.97Q214.12 5.07 214.43 5.21L214.43 5.21L214.43 5.21Q214.75 5.35 214.99 5.49L214.99 5.49L214.99 5.49Q215.24 5.64 215.26 5.74L215.26 5.74L215.26 5.74Q214.80 6.55 214.35 8.17L214.35 8.17L214.35 8.17Q213.91 9.79 213.61 12.04L213.61 12.04L213.61 12.04Q213.54 12.60 213.49 13.31L213.49 13.31L213.49 13.31Q213.44 14.03 213.44 14.91L213.44 14.91L213.44 14.91Q213.44 15.22 213.44 15.54L213.44 15.54L213.44 15.54Q213.44 15.86 213.47 16.21L213.47 16.21L213.47 16.21Q213.44 16.23 213.42 16.23L213.42 16.23L213.42 16.23Q213.39 16.23 213.30 16.23L213.30 16.23L213.30 16.23Q213.11 16.23 212.85 16.16L212.85 16.16L212.85 16.16Q212.59 16.10 212.35 16.01L212.35 16.01L212.35 16.01Q212.10 15.92 211.93 15.81L211.93 15.81L211.93 15.81Q211.75 15.69 211.71 15.61L211.71 15.61L211.71 15.61Q211.69 15.43 211.69 15.25L211.69 15.25L211.69 15.25Q211.69 15.08 211.69 14.88L211.69 14.88L211.69 14.88Q211.69 14.01 211.76 13.12L211.76 13.12L211.76 13.12Q211.82 12.22 211.97 11.27L211.97 11.27L211.97 11.27Q211.78 11.26 211.46 11.23L211.46 11.23L211.46 11.23Q211.13 11.21 210.74 11.20L210.74 11.20L210.74 11.20Q210.34 11.19 209.88 11.16L209.88 11.16L209.88 11.16Q209.43 11.14 208.99 11.13L208.99 11.13L208.99 11.13Q208.66 11.76 208.36 12.38L208.36 12.38L208.36 12.38Q208.07 13.01 207.86 13.64L207.86 13.64L207.86 13.64Q207.62 14.31 207.47 14.98L207.47 14.98L207.47 14.98Q207.33 15.65 207.28 16.24ZM212.69 7.83L212.69 7.83L212.69 7.83Q212.74 7.63 212.82 7.29L212.82 7.29L212.82 7.29Q212.90 6.94 212.97 6.57L212.97 6.57L212.97 6.57Q212.62 6.69 212.19 7.03L212.19 7.03L212.19 7.03Q211.76 7.36 211.31 7.86L211.31 7.86L211.31 7.86Q210.85 8.36 210.39 8.98L210.39 8.98L210.39 8.98Q209.92 9.60 209.48 10.30L209.48 10.30L209.48 10.30Q210.66 10.21 212.16 10.18L212.16 10.18L212.16 10.18Q212.27 9.59 212.40 9.01L212.40 9.01L212.40 9.01Q212.53 8.43 212.69 7.83ZM226.83 10.35L226.83 10.35L226.83 10.35Q227.88 9.20 228.71 7.91L228.71 7.91L228.71 7.91Q229.54 6.62 230.26 5.01L230.26 5.01L230.26 5.01Q230.62 5.05 230.96 5.21L230.96 5.21L230.96 5.21Q231.29 5.36 231.49 5.56L231.49 5.56L231.49 5.56Q230.72 6.48 230.10 7.24L230.10 7.24L230.10 7.24Q229.47 7.99 228.96 8.66L228.96 8.66L228.96 8.66Q228.44 9.32 228.00 9.93L228.00 9.93L228.00 9.93Q227.56 10.54 227.14 11.16L227.14 11.16L227.14 11.16Q226.93 11.87 226.74 12.60L226.74 12.60L226.74 12.60Q226.56 13.33 226.42 13.99L226.42 13.99L226.42 13.99Q226.28 14.66 226.21 15.22L226.21 15.22L226.21 15.22Q226.13 15.79 226.13 16.20L226.13 16.20L226.13 16.20Q225.97 16.20 225.64 16.14L225.64 16.14L225.64 16.14Q225.30 16.07 224.95 15.99L224.95 15.99L224.95 15.99Q224.60 15.90 224.32 15.82L224.32 15.82L224.32 15.82Q224.03 15.74 223.97 15.68L223.97 15.68L223.97 15.68Q224.20 15.30 224.41 14.75L224.41 14.75L224.41 14.75Q224.63 14.20 224.84 13.59L224.84 13.59L224.84 13.59Q225.05 12.98 225.25 12.36L225.25 12.36L225.25 12.36Q225.44 11.73 225.61 11.20L225.61 11.20L225.61 11.20Q225.26 10.11 224.93 9.15L224.93 9.15L224.93 9.15Q224.60 8.19 224.29 7.41L224.29 7.41L224.29 7.41Q223.99 6.64 223.71 6.08L223.71 6.08L223.71 6.08Q223.43 5.52 223.17 5.22L223.17 5.22L223.17 5.22Q223.31 5.17 223.60 5.11L223.60 5.11L223.60 5.11Q223.89 5.05 224.23 5.00L224.23 5.00L224.23 5.00Q224.57 4.94 224.93 4.91L224.93 4.91L224.93 4.91Q225.29 4.87 225.57 4.86L225.57 4.86L225.57 4.86Q225.57 5.21 225.63 5.71L225.63 5.71L225.63 5.71Q225.69 6.22 225.80 6.79L225.80 6.79L225.80 6.79Q225.90 7.36 226.04 7.95L226.04 7.95L226.04 7.95Q226.18 8.54 226.32 9.03L226.32 9.03L226.32 9.03Q226.46 9.52 226.60 9.88L226.60 9.88L226.60 9.88Q226.73 10.23 226.83 10.35Z"></path></g></svg>